<?xml version="1.0" encoding="iso-8859-1"?>
<!-- Generator: Adobe Illustrator 19.0.0, SVG Export Plug-In . SVG Version: 6.00 Build 0)  -->
<svg xmlns="http://www.w3.org/2000/svg" xmlns:xlink="http://www.w3.org/1999/xlink" version="1.1" id="Capa_1" x="0px" y="0px" viewBox="0 0 502.661 502.661" style="enable-background:new 0 0 502.661 502.661;" xml:space="preserve" width="512px" height="512px">
<g>
	<g>
		<g>
			<path d="M396.536,97.725l-8.607,9.47V42.137H0v418.387h387.907V240.761l74.958-82.422L396.536,97.725z      M357.471,430.087c-26.64,0-300.33,0-326.991,0c0-26.963,0-330.486,0-357.471c26.661,0,300.352,0,326.991,0     c0,7.054,0,33.111,0,68.099L252.27,256.399l66.287,60.657l38.914-42.775C357.471,348.679,357.471,417.835,357.471,430.087z" fill="#FFFFFF"/>
			<path d="M497.207,98.652l-44.242-40.445c-6.018-5.565-14.862-5.954-19.5-0.82l-21.83,25.626l66.287,60.614     l21.873-25.626C504.476,112.911,503.289,104.153,497.207,98.652z" fill="#FFFFFF"/>
			<polygon points="212.58,359.875 215.945,363.024 302.358,334.076 235.984,273.44    " fill="#FFFFFF"/>
			<circle cx="118.855" cy="339.512" r="55.717" fill="#FFFFFF"/>
			<polygon points="52.935,226.977 189.607,226.977 121.228,125.292    " fill="#FFFFFF"/>
		</g>
	</g>
	<g>
	</g>
	<g>
	</g>
	<g>
	</g>
	<g>
	</g>
	<g>
	</g>
	<g>
	</g>
	<g>
	</g>
	<g>
	</g>
	<g>
	</g>
	<g>
	</g>
	<g>
	</g>
	<g>
	</g>
	<g>
	</g>
	<g>
	</g>
	<g>
	</g>
</g>
<g>
</g>
<g>
</g>
<g>
</g>
<g>
</g>
<g>
</g>
<g>
</g>
<g>
</g>
<g>
</g>
<g>
</g>
<g>
</g>
<g>
</g>
<g>
</g>
<g>
</g>
<g>
</g>
<g>
</g>
</svg>
