<?xml version="1.0"?>
<svg xmlns="http://www.w3.org/2000/svg" height="512px" viewBox="0 -1 448.33414 448" width="512px"><path d="m376.265625 303.183594c-23.140625-.039063-44.867187 11.140625-58.285156 29.992187-25.960938-12.175781-59.128907-29.824219-91.265625-46.925781-31.6875-16.863281-61.601563-32.800781-85.144532-43.863281 3.59375-12.550781 3.59375-25.855469 0-38.402344 23.535157-11.078125 53.457032-27 85.144532-43.863281 32.136718-17.105469 65.3125-34.75 91.265625-46.925782 22.25 30.414063 64.378906 38.167969 96.003906 17.667969 31.625-20.496093 41.746094-62.117187 23.070313-94.851562-18.679688-32.734375-59.660157-45.191407-93.398438-28.394531-33.734375 16.796874-48.492188 57.007812-33.628906 91.640624-26.144532 12.320313-58.976563 29.785157-90.832032 46.742188-31.199218 16.601562-60.648437 32.273438-83.730468 43.203125-15.589844-29.101563-48.972656-43.871094-80.992188-35.835937-32.019531 8.035156-54.472656 36.820312-54.472656 69.835937 0 33.011719 22.453125 61.796875 54.472656 69.832031 32.019532 8.035156 65.402344-6.734375 80.992188-35.832031 23.074218 10.902344 52.53125 26.566406 83.722656 43.199219 31.855469 16.960937 64.6875 34.398437 90.832031 46.742187-12.375 29.261719-4.105469 63.171875 20.347657 83.457031 24.449218 20.28125 59.304687 22.144532 85.777343 4.578126 26.46875-17.566407 38.300781-50.40625 29.113281-80.816407-9.1875-30.414062-37.222656-51.207031-68.992187-51.179687zm0 0" fill="#FFFFFF"/></svg>
